<svg id="Layer_1" enable-background="new 0 0 511.916 511.916" height="512" viewBox="0 0 511.916 511.916" width="512" xmlns="http://www.w3.org/2000/svg"><g id="XMLID_1460_"><g id="XMLID_1783_"><g id="XMLID_1622_"><g id="XMLID_1623_"><path id="XMLID_959_" d="m210.372 59.311c12.594-32.93 29.102-49.395 45.608-49.395-43.16 0-86.319 16.465-119.249 49.395-65.86 65.859-65.86 172.639 0 238.498l79.249 79.25h24.701l-30.31-79.25c-25.187-65.859-25.187-172.639.001-238.498z" fill="#8aa8bd"/></g><g id="XMLID_1624_"><path id="XMLID_530_" d="m375.23 59.311c-32.93-32.93-76.09-49.395-119.249-49.395 16.507 0 33.014 16.465 45.608 49.395 25.189 65.859 25.189 172.639 0 238.498l-30.31 79.25h24.701l79.249-79.25c65.861-65.859 65.861-172.639.001-238.498z" fill="#ffcd69"/></g><g id="XMLID_1625_"><path id="XMLID_529_" d="m301.589 59.311c-12.594-32.93-29.102-49.395-45.608-49.395s-33.014 16.465-45.608 49.395c-25.189 65.859-25.189 172.639 0 238.498l30.31 79.25h30.597l30.31-79.25c25.188-65.859 25.188-172.639-.001-238.498z" fill="#ff7d97"/></g></g><g id="XMLID_1619_"><path id="XMLID_7_" d="m269.856 501.916h-27.75c-16.638 0-30.125-13.487-30.125-30.125v-33.875h88v33.875c0 16.638-13.488 30.125-30.125 30.125z" fill="#ffda8f"/></g></g><g id="XMLID_15_"><path id="XMLID_528_" d="m382.301 52.239c-69.653-69.652-182.988-69.652-252.64 0-33.742 33.741-52.324 78.603-52.324 126.321s18.583 92.579 52.324 126.32l79.249 79.25c.023.023.048.042.071.064v44.181c-4.057 1.275-7 5.064-7 9.541v33.875c0 22.125 18 40.125 40.125 40.125h27.75c22.125 0 40.125-18 40.125-40.125v-33.875c0-4.477-2.943-8.266-7-9.541v-44.181c.023-.022.049-.042.071-.064l47.429-47.43c3.905-3.905 3.905-10.237 0-14.143-3.905-3.904-10.237-3.904-14.142 0l-44.5 44.501h-6.028l25.119-65.678c12.608-32.965 19.551-76.584 19.551-122.821s-6.943-89.856-19.551-122.821c-4.691-12.266-10.051-22.647-15.934-31.014 27.451 6.911 52.627 21.121 73.164 41.657 50.426 50.426 60.999 128.852 25.709 190.717-2.737 4.798-1.066 10.905 3.731 13.642s10.904 1.065 13.641-3.731c39.742-69.672 27.841-157.988-28.94-214.77zm-238.498 238.498c-29.964-29.964-46.466-69.803-46.466-112.178s16.502-82.214 46.466-112.178c20.541-20.541 45.724-34.753 73.183-41.662-5.889 8.369-11.258 18.743-15.953 31.019-12.608 32.965-19.551 76.584-19.551 122.821s6.943 89.856 19.551 122.821l25.119 65.678h-6.028zm85.178 137.179v-40.857h54v40.857zm61 43.875c0 11.097-9.028 20.125-20.125 20.125h-27.75c-11.097 0-20.125-9.028-20.125-20.125v-23.875h68zm2.268-177.555-27.852 72.822h-16.833l-27.852-72.822c-24.396-63.784-24.396-167.569 0-231.354 10.29-26.904 23.848-42.967 36.268-42.967s25.978 16.063 36.268 42.967c24.396 63.785 24.396 167.57.001 231.354z"/><path id="XMLID_540_" d="m375.231 287.806c-2.63 0-5.21 1.07-7.07 2.93s-2.93 4.44-2.93 7.07 1.07 5.21 2.93 7.07c1.86 1.87 4.44 2.93 7.07 2.93s5.21-1.06 7.07-2.93c1.86-1.86 2.93-4.44 2.93-7.07s-1.07-5.21-2.93-7.07-4.44-2.93-7.07-2.93z"/></g></g></svg>